<svg width="35" height="31" viewBox="0 0 35 31" fill="none" xmlns="http://www.w3.org/2000/svg">
<path d="M22.6042 6.02083C24.2083 6.02083 25.5208 4.70833 25.5208 3.10417C25.5208 1.5 24.2083 0.1875 22.6042 0.1875C21 0.1875 19.6875 1.5 19.6875 3.10417C19.6875 4.70833 21 6.02083 22.6042 6.02083ZM7.29167 15.5C3.20833 15.5 0 18.7083 0 22.7917C0 26.875 3.20833 30.0833 7.29167 30.0833C11.375 30.0833 14.5833 26.875 14.5833 22.7917C14.5833 18.7083 11.375 15.5 7.29167 15.5ZM7.29167 27.8958C4.52083 27.8958 2.1875 25.5625 2.1875 22.7917C2.1875 20.0208 4.52083 17.6875 7.29167 17.6875C10.0625 17.6875 12.3958 20.0208 12.3958 22.7917C12.3958 25.5625 10.0625 27.8958 7.29167 27.8958ZM15.75 13.3125L19.25 9.8125L20.4167 10.9792C21.9625 12.525 23.8875 13.575 26.1917 13.925C27.0667 14.0563 27.8542 13.3563 27.8542 12.4667C27.8542 11.7521 27.3146 11.1396 26.6146 11.0229C24.9958 10.7604 23.6688 9.9875 22.6042 8.9375L19.8333 6.16667C19.1042 5.58333 18.375 5.29167 17.5 5.29167C16.625 5.29167 15.8958 5.58333 15.4583 6.16667L11.375 10.25C10.7917 10.8333 10.5 11.5625 10.5 12.2917C10.5 13.1667 10.7917 13.8958 11.375 14.3333L16.0417 18.4167V24.25C16.0417 25.0521 16.6979 25.7083 17.5 25.7083C18.3021 25.7083 18.9583 25.0521 18.9583 24.25V17.8333C18.9583 17.075 18.6667 16.3604 18.1562 15.8208L15.75 13.3125ZM27.7083 15.5C23.625 15.5 20.4167 18.7083 20.4167 22.7917C20.4167 26.875 23.625 30.0833 27.7083 30.0833C31.7917 30.0833 35 26.875 35 22.7917C35 18.7083 31.7917 15.5 27.7083 15.5ZM27.7083 27.8958C24.9375 27.8958 22.6042 25.5625 22.6042 22.7917C22.6042 20.0208 24.9375 17.6875 27.7083 17.6875C30.4792 17.6875 32.8125 20.0208 32.8125 22.7917C32.8125 25.5625 30.4792 27.8958 27.7083 27.8958Z" fill="black"/>
</svg>
