<svg width="33" height="21" viewBox="0 0 33 21" fill="none" xmlns="http://www.w3.org/2000/svg">
<path d="M31.7602 10.1849L25.7402 8.15494L22.7652 2.69494C21.9602 1.22494 20.4202 0.314941 18.7752 0.314941H7.92516C6.24516 0.314941 4.74016 1.22494 3.93516 2.69494L0.820156 8.39994C0.820156 8.39994 0.820156 8.39994 0.820156 8.43494C0.785156 8.46994 0.785156 8.50494 0.785156 8.53994V8.57494C0.785156 8.60994 0.785156 8.67994 0.785156 8.71494V17.1149C0.785156 17.4999 1.10016 17.8149 1.48516 17.8149H4.35516C4.67016 19.4249 6.10516 20.6149 7.78516 20.6149C9.46516 20.6149 10.9002 19.4249 11.2152 17.8149H21.8552C22.1702 19.4249 23.6052 20.6149 25.2852 20.6149C26.9652 20.6149 28.4002 19.4249 28.7152 17.8149H31.5502C31.9352 17.8149 32.2502 17.4999 32.2502 17.1149V10.8499C32.2502 10.5349 32.0752 10.2899 31.7602 10.1849ZM12.3002 1.74994H18.7752C19.9302 1.74994 20.9802 2.37994 21.5402 3.39494L24.0602 8.04994H12.3002V1.74994ZM5.16016 3.39494C5.72016 2.37994 6.77016 1.74994 7.92516 1.74994H10.9002V8.04994H2.64016L5.16016 3.39494ZM4.32016 16.4499H2.15016V15.0499H4.95016C4.63516 15.4699 4.42516 15.9249 4.32016 16.4499ZM7.75016 19.2499C6.59516 19.2499 5.65016 18.3049 5.65016 17.1499C5.65016 15.9949 6.59516 15.0499 7.75016 15.0499C8.90516 15.0499 9.85016 15.9949 9.85016 17.1499C9.85016 18.3049 8.90516 19.2499 7.75016 19.2499ZM25.2502 19.2499C24.0952 19.2499 23.1502 18.3049 23.1502 17.1499C23.1502 15.9949 24.0952 15.0499 25.2502 15.0499C26.4052 15.0499 27.3502 15.9949 27.3502 17.1499C27.3502 18.3049 26.4052 19.2499 25.2502 19.2499ZM30.8502 16.4499H28.6802C28.3652 14.8399 26.9302 13.6499 25.2502 13.6499C23.5702 13.6499 22.1352 14.8399 21.8202 16.4499H11.1802C10.8652 14.8399 9.43016 13.6499 7.75016 13.6499H2.15016V9.44994H25.1452L30.8502 11.3399V16.4499Z" fill="black"/>
</svg>
