<svg width="25" height="29" viewBox="0 0 25 29" fill="none" xmlns="http://www.w3.org/2000/svg">
<path d="M22.9999 12.7063H4.79987L14.0749 3.43128C14.2407 3.27324 14.3727 3.08318 14.4629 2.87261C14.5531 2.66204 14.5996 2.43535 14.5996 2.20628C14.5996 1.97721 14.5531 1.75052 14.4629 1.53995C14.3727 1.32938 14.2407 1.13932 14.0749 0.98128C13.9168 0.815457 13.7268 0.683447 13.5162 0.593249C13.3056 0.503051 13.0789 0.456543 12.8499 0.456543C12.6208 0.456543 12.3941 0.503051 12.1835 0.593249C11.973 0.683447 11.7829 0.815457 11.6249 0.98128L1.82488 10.7813C0.969021 11.6556 0.443254 12.7999 0.337376 14.0188C0.337376 14.1938 0.249876 14.2813 0.249876 14.4563C0.236014 14.6358 0.266044 14.816 0.337376 14.9813C0.46079 16.1954 0.984017 17.3342 1.82488 18.2188L11.6249 28.0188C11.9509 28.3383 12.3898 28.5162 12.8462 28.5139C13.3027 28.5116 13.7398 28.3292 14.0626 28.0065C14.3853 27.6837 14.5677 27.2466 14.57 26.7901C14.5723 26.3337 14.3944 25.8948 14.0749 25.5688L4.88737 16.2063H22.9999C23.464 16.2063 23.9091 16.0219 24.2373 15.6937C24.5655 15.3655 24.7499 14.9204 24.7499 14.4563C24.7499 13.9921 24.5655 13.547 24.2373 13.2188C23.9091 12.8906 23.464 12.7063 22.9999 12.7063Z" fill="black"/>
</svg>
