<svg width="35" height="35" viewBox="0 0 35 35" fill="none" xmlns="http://www.w3.org/2000/svg">
<path d="M0.546875 35H34.4531C34.5982 35 34.7373 34.9424 34.8398 34.8399C34.9424 34.7373 35 34.5982 35 34.4532C35 34.3081 34.9424 34.169 34.8398 34.0665C34.7373 33.9639 34.5982 33.9063 34.4531 33.9063H0.546875C0.401835 33.9063 0.262735 33.9639 0.160176 34.0665C0.057617 34.169 0 34.3081 0 34.4532C0 34.5982 0.057617 34.7373 0.160176 34.8399C0.262735 34.9424 0.401835 35 0.546875 35V35ZM12.5146 24.2855C12.5707 24.213 12.6076 24.1275 12.6219 24.0369L12.7062 23.5049C12.3624 23.2415 12.0379 22.9536 11.7355 22.6435L11.5637 23.7274L7.21298 29.3575C6.96249 29.6846 6.83055 30.0872 6.83877 30.4992C6.84699 30.9112 6.9949 31.3081 7.25825 31.6251C7.56313 31.9881 7.99957 32.2154 8.47183 32.2571C8.94409 32.2988 9.41361 32.1515 9.7774 31.8475L15.3858 27.1462C15.464 27.0805 15.5223 26.9943 15.5542 26.8973L15.9662 25.6396L15.0062 25.0568L14.5635 26.4081L9.07471 31.0093C8.93327 31.1272 8.75087 31.1842 8.56746 31.1679C8.38405 31.1516 8.21459 31.0632 8.09618 30.9222C7.99216 30.797 7.93376 30.6401 7.93053 30.4773C7.92731 30.3145 7.97945 30.1554 8.07842 30.0261L12.5146 24.2855ZM26.3068 28.4375L26.7807 29.413C26.7996 29.4519 26.8145 29.4919 26.8315 29.5313H34.4531C34.5982 29.5313 34.7373 29.4737 34.8398 29.3711C34.9424 29.2686 35 29.1295 35 28.9844C35 28.8394 34.9424 28.7003 34.8398 28.5977C34.7373 28.4952 34.5982 28.4375 34.4531 28.4375H26.3068ZM23.6628 32.4958C23.7937 32.525 23.9275 32.5397 24.0617 32.5399C24.4163 32.5397 24.763 32.4349 25.0583 32.2384L25.1699 32.1647C25.5315 31.9255 25.7943 31.5634 25.9096 31.1454C26.0248 30.7274 25.9849 30.2818 25.797 29.891L22.4506 23.0032C22.428 22.9566 22.3988 22.9135 22.3641 22.8751L19.3593 19.5567V18.6225L18.2656 18.0408V19.7674C18.2656 19.9031 18.316 20.0339 18.4071 20.1345L21.5009 23.5514L24.8133 30.369C24.8858 30.5211 24.9009 30.6944 24.8556 30.8568C24.8103 31.0192 24.7078 31.1597 24.5669 31.2523L24.4553 31.326C24.3743 31.3796 24.2833 31.4163 24.1878 31.4338C24.0923 31.4513 23.9942 31.4494 23.8995 31.428C23.806 31.4078 23.7175 31.3689 23.6395 31.3136C23.5614 31.2583 23.4954 31.1878 23.4454 31.1062L20.1002 25.6607C20.0547 25.5867 19.9922 25.5245 19.918 25.4794L15.5785 22.8457L15.4957 22.7904C13.3711 21.3709 12.3047 20.6585 12.3047 18.3516V9.24725C12.3083 8.72381 12.4498 8.21056 12.7149 7.75921C12.98 7.30785 13.3593 6.93432 13.8147 6.67626C14.2702 6.41819 14.7855 6.28469 15.309 6.28921C15.8324 6.29374 16.3454 6.43612 16.7963 6.70201C17.0479 6.81347 17.2677 6.98618 17.4354 7.20438C17.9673 7.75149 18.265 8.48426 18.2656 9.24725V11.8062L19.3593 12.3879V9.24725C19.3591 8.18712 18.9406 7.16989 18.1948 6.41644C18.8642 6.21214 19.4511 5.79963 19.8699 5.23889C20.2888 4.67815 20.5179 3.99842 20.5239 3.29852C20.5299 2.59863 20.3125 1.91507 19.9033 1.34723C19.4941 0.77939 18.9144 0.356879 18.2486 0.14113C17.5828 -0.074619 16.8655 -0.0723574 16.201 0.147586C15.5365 0.367529 14.9596 0.793687 14.5539 1.3641C14.1483 1.9345 13.9352 2.61942 13.9457 3.31926C13.9561 4.01911 14.1894 4.69738 14.6118 5.25547C13.6647 5.41163 12.8034 5.89823 12.1808 6.62895C11.5583 7.35967 11.2147 8.28729 11.2109 9.24725V18.3516C11.2109 21.243 12.6737 22.2206 14.8881 23.6999L19.2374 26.3459L22.5135 31.6787C22.6399 31.8856 22.8069 32.0646 23.0044 32.205C23.2019 32.3455 23.4259 32.4444 23.6628 32.4958V32.4958ZM17.2266 1.09379C17.6592 1.09379 18.0821 1.22209 18.4419 1.46245C18.8016 1.70282 19.082 2.04446 19.2475 2.44417C19.4131 2.84389 19.4564 3.28372 19.372 3.70805C19.2876 4.13239 19.0793 4.52216 18.7734 4.82809C18.4674 5.13401 18.0777 5.34235 17.6533 5.42676C17.229 5.51116 16.7892 5.46784 16.3894 5.30228C15.9897 5.13671 15.6481 4.85633 15.4077 4.4966C15.1674 4.13687 15.0391 3.71394 15.0391 3.28129C15.0397 2.70133 15.2704 2.14532 15.6805 1.73523C16.0906 1.32514 16.6466 1.09446 17.2266 1.09379V1.09379Z" fill="black"/>
</svg>
